<svg width="300" height="300" viewBox="0 0 300 300" fill="none" xmlns="http://www.w3.org/2000/svg">
<path fill-rule="evenodd" clip-rule="evenodd" d="M30.5244 57.4134L0.158852 29.0722C0.0575358 28.9777 1.20342e-05 28.8453 1.20464e-05 28.7067C1.20585e-05 28.5681 0.0575358 28.4357 0.158852 28.3412L30.5244 1.51991e-05L31.2067 0.731071L1.23281 28.7067L31.2067 56.6823L30.5244 57.4134Z" fill="white"/>
<path fill-rule="evenodd" clip-rule="evenodd" d="M50.4756 0L80.8412 28.3412C80.9425 28.4357 81 28.5681 81 28.7067C81 28.8453 80.9425 28.9776 80.8412 29.0722L50.4756 57.4134L49.7933 56.6823L79.7672 28.7067L49.7933 0.731055L50.4756 0Z" fill="white"/>
<circle cx="7" cy="77" r="7" fill="white"/>
<path fill-rule="evenodd" clip-rule="evenodd" d="M27 80C28.6569 80 30 78.6569 30 77C30 75.3431 28.6569 74 27 74C25.3431 74 24 75.3431 24 77C24 78.6569 25.3431 80 27 80ZM27 84C30.866 84 34 80.866 34 77C34 73.134 30.866 70 27 70C23.134 70 20 73.134 20 77C20 80.866 23.134 84 27 84Z" fill="white"/>
<path d="M52 77L40 83.9282L40 70.0718L52 77Z" fill="white"/>
<rect x="60" y="70" width="5" height="14" fill="white"/>
<rect x="66" y="70" width="5" height="14" fill="white"/>
</svg>
